<svg xmlns="http://www.w3.org/2000/svg" viewBox="0 0 400 400" width="100%" height="100%">
  <circle cx="200.000" cy="200.000" r="180.000" stroke="currentColor" stroke-width="2.5" fill="none" />
  <circle cx="200.000" cy="200.000" r="172.000" stroke="currentColor" stroke-width="2.5" fill="none" />
  <circle cx="200.000" cy="200.000" r="60.000" stroke="currentColor" stroke-width="2.5" fill="none" />
  <circle cx="260.000" cy="200.000" r="60.000" stroke="currentColor" stroke-width="2.5" fill="none" />
  <circle cx="230.000" cy="251.962" r="60.000" stroke="currentColor" stroke-width="2.5" fill="none" />
  <circle cx="170.000" cy="251.962" r="60.000" stroke="currentColor" stroke-width="2.5" fill="none" />
  <circle cx="140.000" cy="200.000" r="60.000" stroke="currentColor" stroke-width="2.5" fill="none" />
  <circle cx="170.000" cy="148.038" r="60.000" stroke="currentColor" stroke-width="2.5" fill="none" />
  <circle cx="230.000" cy="148.038" r="60.000" stroke="currentColor" stroke-width="2.5" fill="none" />
  <circle cx="320.000" cy="200.000" r="60.000" stroke="currentColor" stroke-width="2.5" fill="none" />
  <circle cx="260.000" cy="303.923" r="60.000" stroke="currentColor" stroke-width="2.5" fill="none" />
  <circle cx="140.000" cy="303.923" r="60.000" stroke="currentColor" stroke-width="2.5" fill="none" />
  <circle cx="80.000" cy="200.000" r="60.000" stroke="currentColor" stroke-width="2.5" fill="none" />
  <circle cx="140.000" cy="96.077" r="60.000" stroke="currentColor" stroke-width="2.5" fill="none" />
  <circle cx="260.000" cy="96.077" r="60.000" stroke="currentColor" stroke-width="2.5" fill="none" />
  <circle cx="290.000" cy="251.962" r="60.000" stroke="currentColor" stroke-width="2.5" fill="none" />
  <circle cx="200.000" cy="303.923" r="60.000" stroke="currentColor" stroke-width="2.5" fill="none" />
  <circle cx="110.000" cy="251.962" r="60.000" stroke="currentColor" stroke-width="2.5" fill="none" />
  <circle cx="110.000" cy="148.038" r="60.000" stroke="currentColor" stroke-width="2.5" fill="none" />
  <circle cx="200.000" cy="96.077" r="60.000" stroke="currentColor" stroke-width="2.5" fill="none" />
  <circle cx="290.000" cy="148.038" r="60.000" stroke="currentColor" stroke-width="2.5" fill="none" />
</svg>
